<svg width="512" height="512" xmlns="http://www.w3.org/2000/svg">
 <g>
  <title>background</title>
  <rect x="-1" y="-1" width="514" height="514" id="canvas_background" fill="none"/>
 </g>

 <g>
  <title>Layer 1</title>
  <g stroke="null" id="svg_12">
   <rect stroke="null" id="svg_9" height="85.45162" width="162.3581" y="221.392092" x="174.393686" stroke-width="1.5" fill="#ffcc00"/>
   <g stroke="null" id="svg_6">
    <path stroke="null" d="m404.220898,23.99884c-7.117821,0 -12.88537,5.772189 -12.88537,12.889984l0,83.780258c0,7.117796 5.767549,12.889984 12.885344,12.889984l83.780258,0l0,-109.560227l-83.780258,0l0.000026,0z" id="svg_1" fill="#2c4251"/>
    <rect stroke="null" x="344.510029" y="423.555861" width="128.177435" height="64.445279" id="svg_2" fill="#ef4135"/>
    <path stroke="null" d="m346.229888,159.334396l-0.00928,0l-7.475077,0l-68.630582,49.026485c-8.477322,6.282591 -15.94312,9.326447 -22.810354,9.326447c-8.686123,0 -15.905999,-4.909144 -19.311776,-13.131266c-4.653943,-11.242776 -1.521928,-28.879504 6.547073,-37.403227c0.793444,-0.914085 3.322257,-3.804819 6.853314,-7.823079l-30.498872,0l-17.882649,0l-27.223016,0l0,154.670532l180.450475,0l0,-154.665892l-0.00928,0l0.000026,0zm-145.766327,143.455596l-5.98099,-4.366262l-5.99027,4.366262l2.282891,-7.076035l-5.98563,-4.366262l7.377637,0l2.315372,-7.043555l2.282891,7.043555l7.377637,0l-5.99027,4.370902l2.310732,7.071395zm7.210596,-30.883994l-5.98563,-4.356982l-5.99027,4.356982l2.287531,-7.066755l-5.99027,-4.366262l7.405477,0l2.282891,-7.076035l2.278251,7.076035l7.405477,0l-5.98563,4.366262l2.292171,7.066755zm22.610833,-23.520277l-5.99027,-4.361622l-5.98563,4.361622l2.282891,-7.048195l-5.99027,-4.361622l7.414757,0l2.278251,-7.076035l2.282891,7.076035l7.377637,0l-5.95779,4.361622l2.287531,7.048195zm31.617118,-7.9994l-5.98099,-4.389462l-5.98563,4.389462l2.287531,-7.076035l-5.99027,-4.338422l7.405477,-0.0232l2.282891,-7.076035l2.310732,7.076035l7.372997,0l-5.98563,4.361622l2.282891,7.076035zm30.04415,7.9994l-5.95779,-4.361622l-5.98563,4.361622l2.278251,-7.048195l-5.98099,-4.361622l7.382277,0l2.310732,-7.076035l2.278251,7.076035l7.372997,0l-5.98099,4.361622l2.282891,7.048195zm7.637478,10.996855l7.400837,-0.02784l2.282891,-7.052835l2.310732,7.052835l7.372997,0l-5.98563,4.384822l2.282891,7.076035l-5.98099,-4.361622l-5.98099,4.361622l2.301451,-7.076035l-6.00419,-4.356982zm23.738358,42.980534l-5.95315,-4.356982l-6.01347,4.356982l2.306092,-7.066781l-5.98563,-4.366236l7.382277,0l2.310732,-7.076035l2.282891,7.076035l7.368357,0l-5.95315,4.366236l2.255051,7.066781z" id="svg_3" fill="#003399"/>
    <polygon stroke="null" points="359.11519622802734,256.004638671875 359.11519622802734,294.674560546875 381.70751190185547,294.674560546875 391.33553314208984,326.8855895996094 255.99999237060547,326.8855895996094 120.66444396972656,326.8855895996094 130.287841796875,294.674560546875 152.88475799560547,294.674560546875 152.88475799560547,256.004638671875 75.55413818359375,256.004638671875 23.99884033203125,372.0005798339844 23.99884033203125,410.6658935546875 488.0011520385742,410.6658935546875 488.0011520385742,372.0005798339844 436.44588470458984,256.004638671875 " id="svg_4" fill="#2c4251"/>
    <path stroke="null" d="m255.995358,120.664443c6.444992,-12.889984 51.281536,-12.611583 32.220321,6.444992l-45.495427,50.409212c-5.308186,5.312827 -9.549168,42.242771 19.715458,20.481062l90.22061,-64.445282l6.449632,-19.334976l19.330336,-19.334976l0,-57.995649l-64.436002,0l-64.445282,38.665313c-11.762459,7.609638 -19.334976,12.885344 -25.784609,32.220321c-3.215536,9.665168 -12.885344,38.665313 -12.885344,38.665313l36.247861,0l8.862444,-25.775329z" id="svg_5" fill="#ffe39f"/>
    <rect stroke="null" x="190.697097" y="423.555861" width="128.177435" height="64.445279" id="svg_7" fill="#ffffff"/>
    <rect stroke="null" x="36.884182" y="423.555861" width="128.177435" height="64.445279" id="svg_8" fill="#0055a4"/>
   </g>
  </g>
 </g>
</svg>