<svg width="192" height="192" xmlns="http://www.w3.org/2000/svg">
 <g>
  <title>background</title>
  <rect x="-1" y="-1" width="194" height="194" id="canvas_background" fill="none"/>
 </g>

 <g>
  <title>Layer 1</title>
  <rect id="svg_9" height="33.333332" width="63.333339" y="82.5" x="64.166662" stroke-width="1.5" fill="#ffcc00"/>
  <g id="svg_6" stroke="null">
   <path d="m153.81864,5.5c-2.77655,0 -5.02638,2.25164 -5.02638,5.02818l0,32.68136c0,2.77654 2.24983,5.02818 5.02637,5.02818l32.68136,0l0,-42.73772l-32.68136,0l0.00001,0z" id="svg_1" stroke="null" fill="#2c4251"/>
   <rect x="130.52637" y="161.360905" width="50" height="25.139089" id="svg_2" stroke="null" fill="#ef4135"/>
   <path d="m131.19726,58.29227l-0.00362,0l-2.91591,0l-26.77171,19.12446c-3.30687,2.45074 -6.21916,3.6381 -8.89796,3.6381c-3.38832,0 -6.20468,-1.91498 -7.53322,-5.1223c-1.81543,-4.38563 -0.59368,-11.26544 2.55391,-14.59041c0.30951,-0.35657 1.29596,-1.4842 2.67337,-3.05166l-11.89713,0l-6.97574,0l-10.61927,0l0,60.33454l70.39089,0l0,-60.33273l-0.00362,0l0.00001,0zm-56.86115,55.95977l-2.33309,-1.70321l-2.33671,1.70321l0.89052,-2.76025l-2.3349,-1.70321l2.8779,0l0.90319,-2.74758l0.89052,2.74758l2.8779,0l-2.33671,1.70502l0.90138,2.75844zm2.81274,-12.04736l-2.3349,-1.69959l-2.33671,1.69959l0.89233,-2.75663l-2.33671,-1.70321l2.88876,0l0.89052,-2.76025l0.88871,2.76025l2.88876,0l-2.3349,1.70321l0.89414,2.75663zm8.82013,-9.17489l-2.33671,-1.7014l-2.3349,1.7014l0.89052,-2.74939l-2.33671,-1.7014l2.89238,0l0.88871,-2.76025l0.89052,2.76025l2.8779,0l-2.32404,1.7014l0.89233,2.74939zm12.33334,-3.12044l-2.33309,-1.71226l-2.3349,1.71226l0.89233,-2.76025l-2.33671,-1.69235l2.88876,-0.00905l0.89052,-2.76025l0.90138,2.76025l2.87609,0l-2.3349,1.7014l0.89052,2.76025zm11.71975,3.12044l-2.32404,-1.7014l-2.3349,1.7014l0.88871,-2.74939l-2.33309,-1.7014l2.87971,0l0.90138,-2.76025l0.88871,2.76025l2.87609,0l-2.33309,1.7014l0.89052,2.74939zm2.97926,4.2897l2.88695,-0.01086l0.89052,-2.7512l0.90138,2.7512l2.87609,0l-2.3349,1.71045l0.89052,2.76025l-2.33309,-1.7014l-2.33309,1.7014l0.89776,-2.76025l-2.34214,-1.69959zm9.25996,16.76603l-2.32223,-1.69959l-2.34576,1.69959l0.89957,-2.75664l-2.3349,-1.7032l2.87971,0l0.90138,-2.76025l0.89052,2.76025l2.87428,0l-2.32223,1.7032l0.87966,2.75664z" id="svg_3" stroke="null" fill="#003399"/>
   <polygon points="136.22361755371094,96.0018081665039 136.22361755371094,111.08634185791016 145.03651428222656,111.08634185791016 148.79226684570312,123.6513671875 96,123.6513671875 43.20772933959961,123.6513671875 46.961666107177734,111.08634185791016 55.776371002197266,111.08634185791016 55.776371002197266,96.0018081665039 25.610910415649414,96.0018081665039 5.5,141.24999237060547 5.5,156.33272552490234 186.5,156.33272552490234 186.5,141.24999237060547 166.3890838623047,96.0018081665039 " id="svg_4" stroke="null" fill="#2c4251"/>
   <path d="m95.99819,43.20773c2.51409,-5.02818 20.00412,-4.91958 12.56864,2.51409l-17.74705,19.66384c-2.07064,2.07245 -3.72498,16.47824 7.69069,7.98934l35.19364,-25.13909l2.5159,-7.54227l7.54046,-7.54227l0,-22.62319l-25.13547,0l-25.13909,15.08273c-4.58835,2.9684 -7.54227,5.02637 -10.05817,12.56864c-1.25433,3.77023 -5.02637,15.08273 -5.02637,15.08273l14.13972,0l3.4571,-10.05455z" id="svg_5" stroke="null" fill="#ffe39f"/>
   <rect x="70.526366" y="161.360905" width="50" height="25.139089" id="svg_7" stroke="null" fill="#ffffff"/>
   <rect x="10.526369" y="161.360905" width="50" height="25.139089" id="svg_8" stroke="null" fill="#0055a4"/>
  </g>
 </g>
</svg>