<svg width="256" height="256" xmlns="http://www.w3.org/2000/svg">
 <g>
  <title>background</title>
  <rect x="-1" y="-1" width="258" height="258" id="canvas_background" fill="none"/>
 </g>

 <g>
  <title>Layer 1</title>
  <g stroke="null" id="svg_12">
   <rect stroke="null" id="svg_9" height="43.646493" width="82.928348" y="110.323174" x="86.317588" stroke-width="1.5" fill="#ffcc00"/>
   <g stroke="null" id="svg_6">
    <path stroke="null" d="m203.707425,9.499771c-3.6356,0 -6.581516,2.948286 -6.581516,6.583873l0,42.792804c0,3.635587 2.945916,6.583873 6.581503,6.583873l42.792804,0l0,-55.96055l-42.792804,0l0.000013,0z" id="svg_1" fill="#2c4251"/>
    <rect stroke="null" x="173.208647" y="213.583235" width="65.469742" height="32.916993" id="svg_2" fill="#ef4135"/>
    <path stroke="null" d="m174.087107,78.625697l-0.00474,0l-3.818077,0l-35.054739,25.041469c-4.329999,3.208986 -8.143336,4.763709 -11.650943,4.763709c-4.436649,0 -8.124376,-2.507465 -9.863959,-6.707113c-2.377115,-5.742521 -0.777362,-14.750909 3.344077,-19.104608c0.405271,-0.466891 1.696923,-1.943404 3.500497,-3.995828l-15.578041,0l-9.133998,0l-13.904817,0l0,79.001735l92.169468,0l0,-78.999365l-0.00474,0l0.000013,0zm-74.453696,73.273434l-3.054936,-2.230174l-3.059676,2.230174l1.166042,-3.614257l-3.057306,-2.230174l3.768307,0l1.182632,-3.597667l1.166042,3.597667l3.768307,0l-3.059676,2.232544l1.180262,3.611887zm3.682987,-15.774751l-3.057306,-2.225434l-3.059676,2.225434l1.168412,-3.609517l-3.059676,-2.230174l3.782527,0l1.166042,-3.614257l1.163672,3.614257l3.782527,0l-3.057306,2.230174l1.170782,3.609517zm11.549033,-12.013554l-3.059676,-2.227804l-3.057306,2.227804l1.166042,-3.600037l-3.059676,-2.227804l3.787267,0l1.163672,-3.614257l1.166042,3.614257l3.768307,0l-3.043086,2.227804l1.168412,3.600037zm16.149212,-4.085888l-3.054936,-2.242024l-3.057306,2.242024l1.168412,-3.614257l-3.059676,-2.215954l3.782527,-0.01185l1.166042,-3.614257l1.180262,3.614257l3.765937,0l-3.057306,2.227804l1.166042,3.614257zm15.34578,4.085888l-3.043086,-2.227804l-3.057306,2.227804l1.163672,-3.600037l-3.054936,-2.227804l3.770677,0l1.180262,-3.614257l1.163672,3.614257l3.765937,0l-3.054936,2.227804l1.166042,3.600037zm3.901028,5.616911l3.780157,-0.01422l1.166042,-3.602407l1.180262,3.602407l3.765937,0l-3.057306,2.239654l1.166042,3.614257l-3.054936,-2.227804l-3.054936,2.227804l1.175522,-3.614257l-3.066786,-2.225434zm12.124944,21.953353l-3.040716,-2.225434l-3.071526,2.225434l1.177892,-3.60953l-3.057306,-2.230161l3.770677,0l1.180262,-3.614257l1.166042,3.614257l3.763567,0l-3.040716,2.230161l1.151822,3.60953z" id="svg_3" fill="#003399"/>
    <polygon stroke="null" points="180.66858673095703,128.00238037109375 180.66858673095703,147.7539825439453 192.2081527709961,147.7539825439453 197.12592315673828,164.20655822753906 127.99999237060547,164.20655822753906 58.87406921386719,164.20655822753906 63.78945541381836,147.7539825439453 75.33138275146484,147.7539825439453 75.33138275146484,128.00238037109375 35.8328857421875,128.00238037109375 9.499763488769531,187.2501220703125 9.499763488769531,206.99937438964844 246.50023651123047,206.99937438964844 246.50023651123047,187.2501220703125 220.16710662841797,128.00238037109375 " id="svg_4" fill="#2c4251"/>
    <path stroke="null" d="m127.997626,58.874078c3.291936,-6.583873 26.193291,-6.441673 16.457312,3.291936l-23.237896,25.747731c-2.711285,2.713655 -4.87747,21.576522 10.07015,10.461201l46.08237,-32.916995l3.294306,-9.875809l9.873439,-9.875809l0,-29.622688l-32.912255,0l-32.916995,19.749249c-6.007962,3.886808 -9.875809,6.581503 -13.170116,16.457312c-1.642413,4.93672 -6.581503,19.749249 -6.581503,19.749249l18.514476,0l4.526709,-13.165376z" id="svg_5" fill="#ffe39f"/>
    <rect stroke="null" x="94.644951" y="213.583235" width="65.469742" height="32.916993" id="svg_7" fill="#ffffff"/>
    <rect stroke="null" x="16.081265" y="213.583235" width="65.469742" height="32.916993" id="svg_8" fill="#0055a4"/>
   </g>
  </g>
 </g>
</svg>